<svg width="50" height="50" viewBox="0 0 50 50" fill="none" xmlns="http://www.w3.org/2000/svg">
<g clip-path="url(#clip0_404_582)">
<path d="M25 50C38.8071 50 50 38.8071 50 25C50 11.1929 38.8071 0 25 0C11.1929 0 0 11.1929 0 25C0 38.8071 11.1929 50 25 50Z" fill="#F0F0F0"/>
<path d="M25 0C11.193 0 0 11.193 0 25C0 28.058 0.550098 30.9874 1.55498 33.6956H48.4451C49.45 30.9874 50 28.058 50 25C50 11.193 38.807 0 25 0Z" fill="#0052B4"/>
<path d="M25 0C14.2508 0 5.08726 6.78437 1.55493 16.3044H48.4451C44.9126 6.78437 35.7491 0 25 0V0Z" fill="#D80027"/>
<path d="M6.4646 14.1305V26.6018C6.4646 33.6959 15.7323 35.8697 15.7323 35.8697C15.7323 35.8697 24.9999 33.6959 24.9999 26.6018V14.1305H6.4646Z" fill="#D80027"/>
<path d="M10.2974 16.3044H21.167V11.9565L18.9931 13.0434L15.7322 9.78259L12.4713 13.0434L10.2974 11.9565V16.3044Z" fill="#FFDA44"/>
<path d="M22.826 28.3382L15.7608 21.2729L8.69556 28.3382L11.0013 30.6439L15.7608 25.8845L20.5203 30.6439L22.826 28.3382Z" fill="#FFDA44"/>
<path d="M22.826 21.7392H19.5295C19.7149 21.4192 19.8227 21.0487 19.8227 20.6524C19.8227 19.4517 18.8494 18.4785 17.6488 18.4785C16.8192 18.4785 16.0988 18.9432 15.7323 19.6263C15.3658 18.9433 14.6454 18.4785 13.8158 18.4785C12.6152 18.4785 11.6418 19.4517 11.6418 20.6524C11.6418 21.0487 11.7497 21.4193 11.935 21.7392H8.69556C8.69556 22.9398 9.74136 23.9131 10.9418 23.9131H10.8695C10.8695 25.1138 11.8427 26.087 13.0434 26.087C13.0434 27.1501 13.8069 28.0333 14.8152 28.2224L13.1023 32.0897C13.9232 32.4234 14.8203 32.6088 15.7609 32.6088C16.7015 32.6088 17.5986 32.4234 18.4195 32.0897L16.7066 28.2224C17.7149 28.0335 18.4784 27.1502 18.4784 26.087C19.6791 26.087 20.6523 25.1138 20.6523 23.9131H20.5799C21.7803 23.9131 22.826 22.9397 22.826 21.7392V21.7392Z" fill="#F0F0F0"/>
</g>
<defs>
<clipPath id="clip0_404_582">
<rect width="50" height="50" fill="white"/>
</clipPath>
</defs>
</svg>
